<svg width="27" height="27" viewBox="0 0 27 27" fill="none" xmlns="http://www.w3.org/2000/svg">
<g id="bell">
<g id="Path">
<path d="M11.2741 5.52799C11.2741 4.33138 12.2442 3.36133 13.4408 3.36133C14.6374 3.36133 15.6074 4.33138 15.6074 5.52799C18.1426 6.72676 19.8093 9.22676 19.9408 12.028V15.278C20.1061 16.6439 20.9102 17.85 22.1074 18.528H4.77411C5.97132 17.85 6.77544 16.6439 6.94078 15.278V12.028C7.07226 9.22676 8.73892 6.72676 11.2741 5.52799" stroke="#8692D0" stroke-width="2" stroke-linecap="round" stroke-linejoin="round"/>
<path d="M11.2741 5.52799C11.2741 4.33138 12.2442 3.36133 13.4408 3.36133C14.6374 3.36133 15.6074 4.33138 15.6074 5.52799C18.1426 6.72676 19.8093 9.22676 19.9408 12.028V15.278C20.1061 16.6439 20.9102 17.85 22.1074 18.528H4.77411C5.97132 17.85 6.77544 16.6439 6.94078 15.278V12.028C7.07226 9.22676 8.73892 6.72676 11.2741 5.52799" stroke="white" stroke-opacity="0.4" stroke-width="2" stroke-linecap="round" stroke-linejoin="round"/>
</g>
<g id="Path_2">
<path d="M10.1908 18.5273V19.6107C10.1908 21.4056 11.6459 22.8607 13.4408 22.8607C15.2357 22.8607 16.6908 21.4056 16.6908 19.6107V18.5273" stroke="#8692D0" stroke-width="2" stroke-linecap="round" stroke-linejoin="round"/>
<path d="M10.1908 18.5273V19.6107C10.1908 21.4056 11.6459 22.8607 13.4408 22.8607C15.2357 22.8607 16.6908 21.4056 16.6908 19.6107V18.5273" stroke="white" stroke-opacity="0.4" stroke-width="2" stroke-linecap="round" stroke-linejoin="round"/>
</g>
</g>
</svg>
