<svg width="22" height="22" viewBox="0 0 22 22" fill="none" xmlns="http://www.w3.org/2000/svg">
<g id="checkbox">
<g id="Path">
<path d="M8.25 10.0833L11 12.8333L18.3333 5.5" stroke="#4B465C" stroke-width="1.5" stroke-linecap="round" stroke-linejoin="round"/>
<path d="M8.25 10.0833L11 12.8333L18.3333 5.5" stroke="white" stroke-opacity="0.7" stroke-width="1.5" stroke-linecap="round" stroke-linejoin="round"/>
</g>
<g id="Path_2">
<path d="M18.3333 11V16.5C18.3333 17.5125 17.5125 18.3333 16.5 18.3333H5.49996C4.48744 18.3333 3.66663 17.5125 3.66663 16.5V5.49996C3.66663 4.48744 4.48744 3.66663 5.49996 3.66663H13.75" stroke="#4B465C" stroke-width="1.5" stroke-linecap="round" stroke-linejoin="round"/>
<path d="M18.3333 11V16.5C18.3333 17.5125 17.5125 18.3333 16.5 18.3333H5.49996C4.48744 18.3333 3.66663 17.5125 3.66663 16.5V5.49996C3.66663 4.48744 4.48744 3.66663 5.49996 3.66663H13.75" stroke="white" stroke-opacity="0.7" stroke-width="1.5" stroke-linecap="round" stroke-linejoin="round"/>
</g>
</g>
</svg>
