<svg width="22" height="22" viewBox="0 0 22 22" fill="none" xmlns="http://www.w3.org/2000/svg">
<g id="color-swatch">
<g id="Path">
<path d="M17.4166 2.75H13.75C12.7374 2.75 11.9166 3.57081 11.9166 4.58333V15.5833C11.9166 17.6084 13.5582 19.25 15.5833 19.25C17.6083 19.25 19.25 17.6084 19.25 15.5833V4.58333C19.25 3.57081 18.4291 2.75 17.4166 2.75" stroke="#4B465C" stroke-width="1.5" stroke-linecap="round" stroke-linejoin="round"/>
<path d="M17.4166 2.75H13.75C12.7374 2.75 11.9166 3.57081 11.9166 4.58333V15.5833C11.9166 17.6084 13.5582 19.25 15.5833 19.25C17.6083 19.25 19.25 17.6084 19.25 15.5833V4.58333C19.25 3.57081 18.4291 2.75 17.4166 2.75" stroke="white" stroke-opacity="0.7" stroke-width="1.5" stroke-linecap="round" stroke-linejoin="round"/>
</g>
<g id="Path_2">
<path d="M11.9167 6.73754L10.0834 4.90421C9.36746 4.18851 8.20696 4.18851 7.49105 4.90421L4.89871 7.49654C4.18301 8.21246 4.18301 9.37296 4.89871 10.0889L13.1487 18.3389" stroke="#4B465C" stroke-width="1.5" stroke-linecap="round" stroke-linejoin="round"/>
<path d="M11.9167 6.73754L10.0834 4.90421C9.36746 4.18851 8.20696 4.18851 7.49105 4.90421L4.89871 7.49654C4.18301 8.21246 4.18301 9.37296 4.89871 10.0889L13.1487 18.3389" stroke="white" stroke-opacity="0.7" stroke-width="1.5" stroke-linecap="round" stroke-linejoin="round"/>
</g>
<g id="Path_3">
<path d="M6.69167 11.9166H4.58333C3.57081 11.9166 2.75 12.7374 2.75 13.75V17.4166C2.75 18.4291 3.57081 19.25 4.58333 19.25H15.5833" stroke="#4B465C" stroke-width="1.5" stroke-linecap="round" stroke-linejoin="round"/>
<path d="M6.69167 11.9166H4.58333C3.57081 11.9166 2.75 12.7374 2.75 13.75V17.4166C2.75 18.4291 3.57081 19.25 4.58333 19.25H15.5833" stroke="white" stroke-opacity="0.7" stroke-width="1.5" stroke-linecap="round" stroke-linejoin="round"/>
</g>
<g id="Path_4">
<path d="M15.5833 15.5834V15.5926" stroke="#4B465C" stroke-width="1.5" stroke-linecap="round" stroke-linejoin="round"/>
<path d="M15.5833 15.5834V15.5926" stroke="white" stroke-opacity="0.7" stroke-width="1.5" stroke-linecap="round" stroke-linejoin="round"/>
</g>
</g>
</svg>
