<svg width="22" height="22" viewBox="0 0 22 22" fill="none" xmlns="http://www.w3.org/2000/svg">
<g id="command">
<g id="Path">
<path d="M6.41671 8.25004C5.40419 8.25004 4.58337 7.42923 4.58337 6.41671C4.58337 5.40419 5.40419 4.58337 6.41671 4.58337C7.42923 4.58337 8.25004 5.40419 8.25004 6.41671V15.5834C8.25004 16.5959 7.42923 17.4167 6.41671 17.4167C5.40419 17.4167 4.58337 16.5959 4.58337 15.5834C4.58337 14.5709 5.40419 13.75 6.41671 13.75H15.5834C16.5959 13.75 17.4167 14.5709 17.4167 15.5834C17.4167 16.5959 16.5959 17.4167 15.5834 17.4167C14.5709 17.4167 13.75 16.5959 13.75 15.5834V6.41671C13.75 5.40419 14.5709 4.58337 15.5834 4.58337C16.5959 4.58337 17.4167 5.40419 17.4167 6.41671C17.4167 7.42923 16.5959 8.25004 15.5834 8.25004H6.41671" stroke="#4B465C" stroke-width="1.5" stroke-linecap="round" stroke-linejoin="round"/>
<path d="M6.41671 8.25004C5.40419 8.25004 4.58337 7.42923 4.58337 6.41671C4.58337 5.40419 5.40419 4.58337 6.41671 4.58337C7.42923 4.58337 8.25004 5.40419 8.25004 6.41671V15.5834C8.25004 16.5959 7.42923 17.4167 6.41671 17.4167C5.40419 17.4167 4.58337 16.5959 4.58337 15.5834C4.58337 14.5709 5.40419 13.75 6.41671 13.75H15.5834C16.5959 13.75 17.4167 14.5709 17.4167 15.5834C17.4167 16.5959 16.5959 17.4167 15.5834 17.4167C14.5709 17.4167 13.75 16.5959 13.75 15.5834V6.41671C13.75 5.40419 14.5709 4.58337 15.5834 4.58337C16.5959 4.58337 17.4167 5.40419 17.4167 6.41671C17.4167 7.42923 16.5959 8.25004 15.5834 8.25004H6.41671" stroke="white" stroke-opacity="0.7" stroke-width="1.5" stroke-linecap="round" stroke-linejoin="round"/>
</g>
</g>
</svg>
