<svg width="24" height="25" viewBox="0 0 24 25" fill="none" xmlns="http://www.w3.org/2000/svg">
<g id="copy">
<g id="Rectangle">
<rect x="8" y="8.11133" width="12" height="12" rx="2" stroke="#8692D0" stroke-width="1.5" stroke-linecap="round" stroke-linejoin="round"/>
<rect x="8" y="8.11133" width="12" height="12" rx="2" stroke="black" stroke-opacity="0.1" stroke-width="1.5" stroke-linecap="round" stroke-linejoin="round"/>
</g>
<g id="Path">
<path d="M16 8.11133V6.11133C16 5.00676 15.1046 4.11133 14 4.11133H6C4.89543 4.11133 4 5.00676 4 6.11133V14.1113C4 15.2159 4.89543 16.1113 6 16.1113H8" stroke="#8692D0" stroke-width="2" stroke-linecap="round" stroke-linejoin="round"/>
<path d="M16 8.11133V6.11133C16 5.00676 15.1046 4.11133 14 4.11133H6C4.89543 4.11133 4 5.00676 4 6.11133V14.1113C4 15.2159 4.89543 16.1113 6 16.1113H8" stroke="black" stroke-opacity="0.1" stroke-width="2" stroke-linecap="round" stroke-linejoin="round"/>
</g>
</g>
</svg>
