<svg width="22" height="22" viewBox="0 0 22 22" fill="none" xmlns="http://www.w3.org/2000/svg">
<g id="fi:more-horizontal">
<g id="Vector">
<path d="M17.4166 11.9166C17.9229 11.9166 18.3333 11.5062 18.3333 10.9999C18.3333 10.4937 17.9229 10.0833 17.4166 10.0833C16.9104 10.0833 16.5 10.4937 16.5 10.9999C16.5 11.5062 16.9104 11.9166 17.4166 11.9166Z" stroke="#4B465C" stroke-width="2" stroke-linecap="round" stroke-linejoin="round"/>
<path d="M17.4166 11.9166C17.9229 11.9166 18.3333 11.5062 18.3333 10.9999C18.3333 10.4937 17.9229 10.0833 17.4166 10.0833C16.9104 10.0833 16.5 10.4937 16.5 10.9999C16.5 11.5062 16.9104 11.9166 17.4166 11.9166Z" stroke="white" stroke-opacity="0.7" stroke-width="2" stroke-linecap="round" stroke-linejoin="round"/>
<path d="M11 11.9166C11.5062 11.9166 11.9166 11.5062 11.9166 10.9999C11.9166 10.4937 11.5062 10.0833 11 10.0833C10.4937 10.0833 10.0833 10.4937 10.0833 10.9999C10.0833 11.5062 10.4937 11.9166 11 11.9166Z" stroke="#4B465C" stroke-width="2" stroke-linecap="round" stroke-linejoin="round"/>
<path d="M11 11.9166C11.5062 11.9166 11.9166 11.5062 11.9166 10.9999C11.9166 10.4937 11.5062 10.0833 11 10.0833C10.4937 10.0833 10.0833 10.4937 10.0833 10.9999C10.0833 11.5062 10.4937 11.9166 11 11.9166Z" stroke="white" stroke-opacity="0.7" stroke-width="2" stroke-linecap="round" stroke-linejoin="round"/>
<path d="M4.58329 11.9166C5.08955 11.9166 5.49996 11.5062 5.49996 10.9999C5.49996 10.4937 5.08955 10.0833 4.58329 10.0833C4.07703 10.0833 3.66663 10.4937 3.66663 10.9999C3.66663 11.5062 4.07703 11.9166 4.58329 11.9166Z" stroke="#4B465C" stroke-width="2" stroke-linecap="round" stroke-linejoin="round"/>
<path d="M4.58329 11.9166C5.08955 11.9166 5.49996 11.5062 5.49996 10.9999C5.49996 10.4937 5.08955 10.0833 4.58329 10.0833C4.07703 10.0833 3.66663 10.4937 3.66663 10.9999C3.66663 11.5062 4.07703 11.9166 4.58329 11.9166Z" stroke="white" stroke-opacity="0.7" stroke-width="2" stroke-linecap="round" stroke-linejoin="round"/>
</g>
</g>
</svg>
