<svg width="22" height="22" viewBox="0 0 22 22" fill="none" xmlns="http://www.w3.org/2000/svg">
<g id="file-dollar">
<g id="Path">
<path d="M12.8334 2.75V6.41667C12.8334 6.92293 13.2438 7.33333 13.75 7.33333H17.4167" stroke="#4B465C" stroke-width="1.5" stroke-linecap="round" stroke-linejoin="round"/>
<path d="M12.8334 2.75V6.41667C12.8334 6.92293 13.2438 7.33333 13.75 7.33333H17.4167" stroke="white" stroke-opacity="0.7" stroke-width="1.5" stroke-linecap="round" stroke-linejoin="round"/>
</g>
<g id="Path_2">
<path fill-rule="evenodd" clip-rule="evenodd" d="M15.5834 19.25H6.41671C5.40419 19.25 4.58337 18.4292 4.58337 17.4167V4.58333C4.58337 3.57081 5.40419 2.75 6.41671 2.75H12.8334L17.4167 7.33333V17.4167C17.4167 18.4292 16.5959 19.25 15.5834 19.25Z" stroke="#4B465C" stroke-width="1.5" stroke-linecap="round" stroke-linejoin="round"/>
<path fill-rule="evenodd" clip-rule="evenodd" d="M15.5834 19.25H6.41671C5.40419 19.25 4.58337 18.4292 4.58337 17.4167V4.58333C4.58337 3.57081 5.40419 2.75 6.41671 2.75H12.8334L17.4167 7.33333V17.4167C17.4167 18.4292 16.5959 19.25 15.5834 19.25Z" stroke="white" stroke-opacity="0.7" stroke-width="1.5" stroke-linecap="round" stroke-linejoin="round"/>
</g>
<g id="Path_3">
<path d="M12.8333 10.0834H10.5416C9.78223 10.0834 9.16663 10.699 9.16663 11.4584C9.16663 12.2178 9.78223 12.8334 10.5416 12.8334H11.4583C12.2177 12.8334 12.8333 13.449 12.8333 14.2084C12.8333 14.9678 12.2177 15.5834 11.4583 15.5834H9.16663" stroke="#4B465C" stroke-width="1.5" stroke-linecap="round" stroke-linejoin="round"/>
<path d="M12.8333 10.0834H10.5416C9.78223 10.0834 9.16663 10.699 9.16663 11.4584C9.16663 12.2178 9.78223 12.8334 10.5416 12.8334H11.4583C12.2177 12.8334 12.8333 13.449 12.8333 14.2084C12.8333 14.9678 12.2177 15.5834 11.4583 15.5834H9.16663" stroke="white" stroke-opacity="0.7" stroke-width="1.5" stroke-linecap="round" stroke-linejoin="round"/>
</g>
<g id="Shape">
<path d="M11.75 15.5833C11.75 15.1691 11.4142 14.8333 11 14.8333C10.5857 14.8333 10.25 15.1691 10.25 15.5833H11.75ZM10.25 16.5C10.25 16.9142 10.5857 17.25 11 17.25C11.4142 17.25 11.75 16.9142 11.75 16.5H10.25ZM11.75 9.16663C11.75 8.75241 11.4142 8.41663 11 8.41663C10.5857 8.41663 10.25 8.75241 10.25 9.16663H11.75ZM10.25 10.0833C10.25 10.4975 10.5857 10.8333 11 10.8333C11.4142 10.8333 11.75 10.4975 11.75 10.0833H10.25ZM10.25 15.5833V16.5H11.75V15.5833H10.25ZM10.25 9.16663V10.0833H11.75V9.16663H10.25Z" fill="#4B465C"/>
<path d="M11.75 15.5833C11.75 15.1691 11.4142 14.8333 11 14.8333C10.5857 14.8333 10.25 15.1691 10.25 15.5833H11.75ZM10.25 16.5C10.25 16.9142 10.5857 17.25 11 17.25C11.4142 17.25 11.75 16.9142 11.75 16.5H10.25ZM11.75 9.16663C11.75 8.75241 11.4142 8.41663 11 8.41663C10.5857 8.41663 10.25 8.75241 10.25 9.16663H11.75ZM10.25 10.0833C10.25 10.4975 10.5857 10.8333 11 10.8333C11.4142 10.8333 11.75 10.4975 11.75 10.0833H10.25ZM10.25 15.5833V16.5H11.75V15.5833H10.25ZM10.25 9.16663V10.0833H11.75V9.16663H10.25Z" fill="white" fill-opacity="0.7"/>
</g>
</g>
</svg>
