<svg width="27" height="27" viewBox="0 0 27 27" fill="none" xmlns="http://www.w3.org/2000/svg">
<g id="moon-stars">
<g id="Path">
<path fill-rule="evenodd" clip-rule="evenodd" d="M13.4408 3.36218C13.5838 3.36218 13.7257 3.36218 13.8665 3.36218C10.9948 6.03061 10.4378 10.369 12.5424 13.6763C14.647 16.9836 18.8129 18.3166 22.4465 16.8453C20.5694 21.3619 15.6365 23.7888 10.913 22.5195C6.18943 21.2502 3.13729 16.6777 3.77684 11.8286C4.41639 6.97953 8.54969 3.3547 13.4408 3.35352V3.36218Z" stroke="#8692D0" stroke-width="2" stroke-linecap="round" stroke-linejoin="round"/>
<path fill-rule="evenodd" clip-rule="evenodd" d="M13.4408 3.36218C13.5838 3.36218 13.7257 3.36218 13.8665 3.36218C10.9948 6.03061 10.4378 10.369 12.5424 13.6763C14.647 16.9836 18.8129 18.3166 22.4465 16.8453C20.5694 21.3619 15.6365 23.7888 10.913 22.5195C6.18943 21.2502 3.13729 16.6777 3.77684 11.8286C4.41639 6.97953 8.54969 3.3547 13.4408 3.35352V3.36218Z" stroke="white" stroke-opacity="0.4" stroke-width="2" stroke-linecap="round" stroke-linejoin="round"/>
</g>
<g id="Path_2">
<path d="M18.8575 4.44531C18.8575 5.64193 19.8275 6.61198 21.0241 6.61198C19.8275 6.61198 18.8575 7.58203 18.8575 8.77865C18.8575 7.58203 17.8874 6.61198 16.6908 6.61198C17.8874 6.61198 18.8575 5.64193 18.8575 4.44531" stroke="#8692D0" stroke-width="2" stroke-linecap="round" stroke-linejoin="round"/>
<path d="M18.8575 4.44531C18.8575 5.64193 19.8275 6.61198 21.0241 6.61198C19.8275 6.61198 18.8575 7.58203 18.8575 8.77865C18.8575 7.58203 17.8874 6.61198 16.6908 6.61198C17.8874 6.61198 18.8575 5.64193 18.8575 4.44531" stroke="white" stroke-opacity="0.4" stroke-width="2" stroke-linecap="round" stroke-linejoin="round"/>
</g>
<g id="Shape">
<path d="M21.0241 11.0286C20.4718 11.0286 20.0241 11.4764 20.0241 12.0286C20.0241 12.5809 20.4718 13.0286 21.0241 13.0286V11.0286ZM23.1908 13.0286C23.7431 13.0286 24.1908 12.5809 24.1908 12.0286C24.1908 11.4764 23.7431 11.0286 23.1908 11.0286V13.0286ZM23.1074 10.9453C23.1074 10.393 22.6597 9.94531 22.1074 9.94531C21.5552 9.94531 21.1074 10.393 21.1074 10.9453H23.1074ZM21.1074 13.112C21.1074 13.6643 21.5552 14.112 22.1074 14.112C22.6597 14.112 23.1074 13.6643 23.1074 13.112H21.1074ZM21.0241 13.0286H23.1908V11.0286H21.0241V13.0286ZM21.1074 10.9453V13.112H23.1074V10.9453H21.1074Z" fill="#8692D0"/>
<path d="M21.0241 11.0286C20.4718 11.0286 20.0241 11.4764 20.0241 12.0286C20.0241 12.5809 20.4718 13.0286 21.0241 13.0286V11.0286ZM23.1908 13.0286C23.7431 13.0286 24.1908 12.5809 24.1908 12.0286C24.1908 11.4764 23.7431 11.0286 23.1908 11.0286V13.0286ZM23.1074 10.9453C23.1074 10.393 22.6597 9.94531 22.1074 9.94531C21.5552 9.94531 21.1074 10.393 21.1074 10.9453H23.1074ZM21.1074 13.112C21.1074 13.6643 21.5552 14.112 22.1074 14.112C22.6597 14.112 23.1074 13.6643 23.1074 13.112H21.1074ZM21.0241 13.0286H23.1908V11.0286H21.0241V13.0286ZM21.1074 10.9453V13.112H23.1074V10.9453H21.1074Z" fill="white" fill-opacity="0.4"/>
</g>
</g>
</svg>
