<?xml version="1.0" encoding="UTF-8" standalone="no"?>
<svg
   version="1.1"
   width="500"
   height="500"
   viewBox="0 0 500 500"
   xml:space="preserve"
   id="svg51"
   xmlns="http://www.w3.org/2000/svg"
   xmlns:svg="http://www.w3.org/2000/svg">
<desc
   id="desc2">Created with Fabric.js 5.3.0</desc>
<defs
   id="defs4" />





<path
   style="fill:#ececec;stroke-width:0.670209"
   d="m 142.76989,397.0891 c -0.17502,-0.17503 -5.27722,-0.51834 -11.3382,-0.76291 -9.91066,-0.39993 -11.69462,-0.66316 -17.72207,-2.61509 C 99.757682,389.19292 88.674302,382.51816 77.607262,371.96912 69.561479,364.29994 64.043485,356.97075 58.789895,346.97526 53.26367,336.46106 50.107212,326.79754 46.256323,308.60361 l -1.985971,-9.38293 -0.05335,-28.81901 c -0.05885,-31.79738 0.0636,-33.18402 4.467281,-50.60081 3.489638,-13.80168 9.789252,-30.80233 14.808644,-39.96381 4.556056,-8.3158 6.237517,-11.14802 10.853935,-18.28219 13.66098,-21.11156 26.548668,-35.01009 47.070138,-50.76214 6.0506,-4.64436 17.81342,-12.467763 21.80453,-14.502096 4.03658,-2.057504 10.25771,-2.785907 18.16693,-2.127071 4.99083,0.415737 6.06573,0.743074 8.4408,2.570468 1.49691,1.151734 3.65728,3.752829 4.80083,5.780209 1.92084,3.40545 2.07918,4.17101 2.07918,10.05314 0,5.63147 -0.21893,6.81282 -1.89509,10.22626 -1.11418,2.26897 -2.90933,4.61489 -4.35637,5.69296 -1.35369,1.00854 -2.61207,1.98781 -2.79637,2.17616 -0.18431,0.18835 -2.74786,2.13844 -5.69677,4.33352 -15.28594,11.37839 -31.45635,30.73168 -38.37832,45.93246 -4.82686,10.59986 -10.93984,28.31442 -10.07073,29.18353 0.15911,0.15912 3.18846,-0.44614 6.7319,-1.34501 12.90852,-3.27451 28.87781,-3.79973 42.53188,-1.39886 6.66186,1.17139 17.95906,4.87797 24.88566,8.16493 25.46063,12.08212 44.91534,37.49658 51.13973,66.80586 1.92247,9.0525 2.10353,28.42891 0.35311,37.78719 -2.35841,12.60874 -7.81302,25.78694 -15.21188,36.75158 -11.80907,17.50028 -29.85117,30.88555 -49.91759,37.03341 -5.34355,1.63714 -8.40027,2.13194 -15.07971,2.44101 -4.60768,0.21322 -10.06129,0.5378 -12.11912,0.72131 -2.05784,0.1835 -3.88472,0.19045 -4.05974,0.0154 z m 215.85666,0.0513 c -0.20884,-0.20993 -5.03435,-0.55883 -10.72336,-0.77536 -7.2649,-0.27649 -11.74004,-0.78819 -15.03511,-1.71919 -16.43409,-4.6433 -30.93212,-13.53045 -43.20172,-26.48217 -15.16209,-16.00503 -23.91959,-37.52639 -28.96119,-71.1714 -1.21902,-8.13514 -1.47573,-12.78962 -1.48499,-26.92567 -0.0137,-20.83088 1.20965,-31.86186 5.3886,-48.59017 1.4931,-5.97687 6.72292,-22.63029 8.2084,-26.13817 0.31219,-0.73722 1.68985,-4.05476 3.06144,-7.3723 3.28663,-7.94942 9.30639,-18.8205 16.14383,-29.15411 15.99963,-24.18064 37.86298,-45.009 62.62743,-59.662692 7.59071,-4.491601 7.79874,-4.567469 13.73929,-5.010679 3.31754,-0.247514 8.40467,-0.147814 11.30474,0.221558 4.61102,0.587291 5.561,0.950859 7.56844,2.896551 6.82287,6.612982 8.22228,19.292382 3.02116,27.373142 -1.08924,1.69231 -4.35691,4.62841 -8.36098,7.51261 -20.60352,14.84103 -35.90622,33.8594 -45.69208,56.78664 -2.30096,5.39092 -5.7621,15.6065 -6.68578,19.73312 -0.39641,1.77101 -0.30476,1.89313 1.11056,1.47982 11.13921,-3.25297 16.39633,-3.96749 29.35633,-3.98996 7.82693,-0.0135 14.68205,0.30867 17.09034,0.80332 21.51802,4.41984 36.77564,11.98144 50.16634,24.86221 11.8025,11.35303 19.77894,23.90782 24.75923,38.97063 2.01209,6.0855 2.38298,8.28156 2.87774,17.03902 1.07436,19.01625 0.2745,34.81942 -2.18797,43.22849 -2.08008,7.10326 -7.65177,18.75143 -12.34242,25.80307 -4.6024,6.91895 -18.14428,20.46414 -25.04566,25.05175 -6.83229,4.5417 -17.13748,9.52782 -24.82308,12.01056 -5.14395,1.66169 -7.5611,2.01541 -16.42013,2.40283 -5.71353,0.24985 -11.44382,0.62167 -12.73398,0.82624 -1.29015,0.20458 -2.51659,0.20021 -2.72542,-0.01 z"
   id="path2096" /></svg>
