<svg width="22" height="23" viewBox="0 0 22 23" fill="none" xmlns="http://www.w3.org/2000/svg">
<g id="smart-home">
<g id="Path">
<path d="M17.4167 8.09463L12.5281 4.2923C11.6456 3.60569 10.4095 3.60569 9.52696 4.2923L4.63746 8.09463C4.042 8.5577 3.69386 9.26989 3.69421 10.0242V16.6242C3.69421 17.6367 4.51503 18.4575 5.52755 18.4575H16.5275C17.5401 18.4575 18.3609 17.6367 18.3609 16.6242V10.0242C18.3609 9.2698 18.0125 8.55755 17.4167 8.09463" stroke="#8692D0" stroke-width="1.5" stroke-linecap="round" stroke-linejoin="round"/>
<path d="M17.4167 8.09463L12.5281 4.2923C11.6456 3.60569 10.4095 3.60569 9.52696 4.2923L4.63746 8.09463C4.042 8.5577 3.69386 9.26989 3.69421 10.0242V16.6242C3.69421 17.6367 4.51503 18.4575 5.52755 18.4575H16.5275C17.5401 18.4575 18.3609 17.6367 18.3609 16.6242V10.0242C18.3609 9.2698 18.0125 8.55755 17.4167 8.09463" stroke="white" stroke-opacity="0.6" stroke-width="1.5" stroke-linecap="round" stroke-linejoin="round"/>
</g>
<g id="Path_2">
<path d="M14.6666 13.8614C12.6408 15.0834 9.35731 15.0834 7.33331 13.8614" stroke="#8692D0" stroke-width="1.5" stroke-linecap="round" stroke-linejoin="round"/>
<path d="M14.6666 13.8614C12.6408 15.0834 9.35731 15.0834 7.33331 13.8614" stroke="white" stroke-opacity="0.6" stroke-width="1.5" stroke-linecap="round" stroke-linejoin="round"/>
</g>
</g>
</svg>
